<svg xmlns="http://www.w3.org/2000/svg" xmlns:xlink="http://www.w3.org/1999/xlink" width="315" zoomAndPan="magnify" viewBox="0 0 236.25 112.499997" height="150" preserveAspectRatio="xMidYMid meet" version="1.0"><defs><g/><clipPath id="676d9609c4"><path d="M 2 0.0351562 L 15 0.0351562 L 15 29 L 2 29 Z M 2 0.0351562 " clip-rule="nonzero"/></clipPath><clipPath id="2fd709ceed"><path d="M 16 0.0351562 L 30 0.0351562 L 30 29 L 16 29 Z M 16 0.0351562 " clip-rule="nonzero"/></clipPath><clipPath id="04e06bdeff"><path d="M 32 0.0351562 L 46 0.0351562 L 46 28 L 32 28 Z M 32 0.0351562 " clip-rule="nonzero"/></clipPath><clipPath id="bd6ea93729"><path d="M 47 0.0351562 L 61 0.0351562 L 61 28 L 47 28 Z M 47 0.0351562 " clip-rule="nonzero"/></clipPath><clipPath id="0143540da6"><path d="M 63 0.0351562 L 75 0.0351562 L 75 28 L 63 28 Z M 63 0.0351562 " clip-rule="nonzero"/></clipPath><clipPath id="57ab9f54e9"><path d="M 77 0.0351562 L 90 0.0351562 L 90 29 L 77 29 Z M 77 0.0351562 " clip-rule="nonzero"/></clipPath><clipPath id="4c16c83f1e"><path d="M 91 0.0351562 L 105 0.0351562 L 105 28 L 91 28 Z M 91 0.0351562 " clip-rule="nonzero"/></clipPath><clipPath id="66e6850f64"><path d="M 106 0.0351562 L 110 0.0351562 L 110 28 L 106 28 Z M 106 0.0351562 " clip-rule="nonzero"/></clipPath><clipPath id="fb9fe3e4a8"><path d="M 111 0.0351562 L 125 0.0351562 L 125 28 L 111 28 Z M 111 0.0351562 " clip-rule="nonzero"/></clipPath><clipPath id="cf53389193"><path d="M 127 0.0351562 L 140 0.0351562 L 140 29 L 127 29 Z M 127 0.0351562 " clip-rule="nonzero"/></clipPath><clipPath id="689651dfbd"><rect x="0" width="146" y="0" height="41"/></clipPath><clipPath id="b2dccf05dc"><path d="M 1 11 L 74.816406 11 L 74.816406 85 L 1 85 Z M 1 11 " clip-rule="nonzero"/></clipPath></defs><g transform="matrix(1, 0, 0, 1, 82, 10)"><g clip-path="url(#689651dfbd)"><g clip-path="url(#676d9609c4)"><g fill="#222222" fill-opacity="1"><g transform="translate(0.928042, 27.999333)"><g><path d="M 7.5 -27.75 C 9.613281 -27.75 11.175781 -27.117188 12.1875 -25.859375 C 13.195312 -24.609375 13.703125 -22.9375 13.703125 -20.84375 L 13.703125 -18.375 L 10.796875 -18.375 L 10.796875 -21 C 10.796875 -22.25 10.539062 -23.222656 10.03125 -23.921875 C 9.519531 -24.617188 8.703125 -24.96875 7.578125 -24.96875 C 6.472656 -24.96875 5.660156 -24.617188 5.140625 -23.921875 C 4.617188 -23.222656 4.359375 -22.25 4.359375 -21 L 4.359375 -6.46875 C 4.359375 -5.21875 4.617188 -4.242188 5.140625 -3.546875 C 5.660156 -2.859375 6.472656 -2.515625 7.578125 -2.515625 C 8.703125 -2.515625 9.519531 -2.859375 10.03125 -3.546875 C 10.539062 -4.242188 10.796875 -5.21875 10.796875 -6.46875 L 10.796875 -10.046875 L 13.703125 -10.046875 L 13.703125 -6.640625 C 13.703125 -4.546875 13.195312 -2.867188 12.1875 -1.609375 C 11.175781 -0.347656 9.613281 0.28125 7.5 0.28125 C 5.40625 0.28125 3.851562 -0.347656 2.84375 -1.609375 C 1.832031 -2.867188 1.328125 -4.546875 1.328125 -6.640625 L 1.328125 -20.84375 C 1.328125 -21.882812 1.453125 -22.832031 1.703125 -23.6875 C 1.953125 -24.539062 2.332031 -25.265625 2.84375 -25.859375 C 3.351562 -26.460938 3.992188 -26.925781 4.765625 -27.25 C 5.535156 -27.582031 6.445312 -27.75 7.5 -27.75 Z M 7.5 -27.75 "/></g></g></g></g><g clip-path="url(#2fd709ceed)"><g fill="#222222" fill-opacity="1"><g transform="translate(15.551211, 27.999333)"><g><path d="M 1.328125 -20.84375 C 1.328125 -22.957031 1.84375 -24.632812 2.875 -25.875 C 3.914062 -27.125 5.492188 -27.75 7.609375 -27.75 C 9.734375 -27.75 11.316406 -27.125 12.359375 -25.875 C 13.410156 -24.632812 13.9375 -22.957031 13.9375 -20.84375 L 13.9375 -6.640625 C 13.9375 -4.546875 13.410156 -2.867188 12.359375 -1.609375 C 11.316406 -0.347656 9.734375 0.28125 7.609375 0.28125 C 5.492188 0.28125 3.914062 -0.347656 2.875 -1.609375 C 1.84375 -2.867188 1.328125 -4.546875 1.328125 -6.640625 Z M 4.359375 -6.46875 C 4.359375 -5.21875 4.625 -4.242188 5.15625 -3.546875 C 5.695312 -2.859375 6.515625 -2.515625 7.609375 -2.515625 C 8.734375 -2.515625 9.554688 -2.859375 10.078125 -3.546875 C 10.609375 -4.242188 10.875 -5.21875 10.875 -6.46875 L 10.875 -21 C 10.875 -22.25 10.609375 -23.222656 10.078125 -23.921875 C 9.554688 -24.617188 8.734375 -24.96875 7.609375 -24.96875 C 6.515625 -24.96875 5.695312 -24.617188 5.15625 -23.921875 C 4.625 -23.222656 4.359375 -22.25 4.359375 -21 Z M 4.359375 -6.46875 "/></g></g></g></g><g clip-path="url(#04e06bdeff)"><g fill="#222222" fill-opacity="1"><g transform="translate(30.527227, 27.999333)"><g><path d="M 4.28125 0 L 1.53125 0 L 1.53125 -27.46875 L 5.421875 -27.46875 L 11.78125 -7.609375 L 11.78125 -27.46875 L 14.484375 -27.46875 L 14.484375 0 L 11.296875 0 L 4.28125 -22.21875 Z M 4.28125 0 "/></g></g></g></g><g clip-path="url(#bd6ea93729)"><g fill="#222222" fill-opacity="1"><g transform="translate(46.287354, 27.999333)"><g><path d="M 4.28125 0 L 1.53125 0 L 1.53125 -27.46875 L 5.421875 -27.46875 L 11.78125 -7.609375 L 11.78125 -27.46875 L 14.484375 -27.46875 L 14.484375 0 L 11.296875 0 L 4.28125 -22.21875 Z M 4.28125 0 "/></g></g></g></g><g clip-path="url(#0143540da6)"><g fill="#222222" fill-opacity="1"><g transform="translate(62.047482, 27.999333)"><g><path d="M 11.34375 -15.3125 L 11.34375 -12.5625 L 4.625 -12.5625 L 4.625 -2.78125 L 12.875 -2.78125 L 12.875 0 L 1.5625 0 L 1.5625 -27.46875 L 12.875 -27.46875 L 12.875 -24.6875 L 4.625 -24.6875 L 4.625 -15.3125 Z M 11.34375 -15.3125 "/></g></g></g></g><g clip-path="url(#57ab9f54e9)"><g fill="#222222" fill-opacity="1"><g transform="translate(75.886586, 27.999333)"><g><path d="M 7.5 -27.75 C 9.613281 -27.75 11.175781 -27.117188 12.1875 -25.859375 C 13.195312 -24.609375 13.703125 -22.9375 13.703125 -20.84375 L 13.703125 -18.375 L 10.796875 -18.375 L 10.796875 -21 C 10.796875 -22.25 10.539062 -23.222656 10.03125 -23.921875 C 9.519531 -24.617188 8.703125 -24.96875 7.578125 -24.96875 C 6.472656 -24.96875 5.660156 -24.617188 5.140625 -23.921875 C 4.617188 -23.222656 4.359375 -22.25 4.359375 -21 L 4.359375 -6.46875 C 4.359375 -5.21875 4.617188 -4.242188 5.140625 -3.546875 C 5.660156 -2.859375 6.472656 -2.515625 7.578125 -2.515625 C 8.703125 -2.515625 9.519531 -2.859375 10.03125 -3.546875 C 10.539062 -4.242188 10.796875 -5.21875 10.796875 -6.46875 L 10.796875 -10.046875 L 13.703125 -10.046875 L 13.703125 -6.640625 C 13.703125 -4.546875 13.195312 -2.867188 12.1875 -1.609375 C 11.175781 -0.347656 9.613281 0.28125 7.5 0.28125 C 5.40625 0.28125 3.851562 -0.347656 2.84375 -1.609375 C 1.832031 -2.867188 1.328125 -4.546875 1.328125 -6.640625 L 1.328125 -20.84375 C 1.328125 -21.882812 1.453125 -22.832031 1.703125 -23.6875 C 1.953125 -24.539062 2.332031 -25.265625 2.84375 -25.859375 C 3.351562 -26.460938 3.992188 -26.925781 4.765625 -27.25 C 5.535156 -27.582031 6.445312 -27.75 7.5 -27.75 Z M 7.5 -27.75 "/></g></g></g></g><g clip-path="url(#4c16c83f1e)"><g fill="#222222" fill-opacity="1"><g transform="translate(90.509754, 27.999333)"><g><path d="M 5.578125 0 L 5.578125 -24.6875 L 0.515625 -24.6875 L 0.515625 -27.46875 L 13.703125 -27.46875 L 13.703125 -24.6875 L 8.640625 -24.6875 L 8.640625 0 Z M 5.578125 0 "/></g></g></g></g><g clip-path="url(#66e6850f64)"><g fill="#222222" fill-opacity="1"><g transform="translate(104.466458, 27.999333)"><g><path d="M 4.625 -27.46875 L 4.625 0 L 1.5625 0 L 1.5625 -27.46875 Z M 4.625 -27.46875 "/></g></g></g></g><g clip-path="url(#fb9fe3e4a8)"><g fill="#222222" fill-opacity="1"><g transform="translate(110.386125, 27.999333)"><g><path d="M 4.28125 0 L 1.53125 0 L 1.53125 -27.46875 L 5.421875 -27.46875 L 11.78125 -7.609375 L 11.78125 -27.46875 L 14.484375 -27.46875 L 14.484375 0 L 11.296875 0 L 4.28125 -22.21875 Z M 4.28125 0 "/></g></g></g></g><g clip-path="url(#cf53389193)"><g fill="#222222" fill-opacity="1"><g transform="translate(126.146253, 27.999333)"><g><path d="M 7.5 -27.75 C 9.613281 -27.75 11.175781 -27.117188 12.1875 -25.859375 C 13.195312 -24.609375 13.703125 -22.9375 13.703125 -20.84375 L 13.703125 -18.484375 L 10.796875 -18.484375 L 10.796875 -21 C 10.796875 -22.25 10.539062 -23.222656 10.03125 -23.921875 C 9.519531 -24.617188 8.703125 -24.96875 7.578125 -24.96875 C 6.472656 -24.96875 5.660156 -24.617188 5.140625 -23.921875 C 4.617188 -23.222656 4.359375 -22.25 4.359375 -21 L 4.359375 -6.46875 C 4.359375 -5.21875 4.617188 -4.242188 5.140625 -3.546875 C 5.660156 -2.859375 6.472656 -2.515625 7.578125 -2.515625 C 8.703125 -2.515625 9.519531 -2.859375 10.03125 -3.546875 C 10.539062 -4.242188 10.796875 -5.21875 10.796875 -6.46875 L 10.796875 -11.96875 L 7.96875 -11.96875 L 7.96875 -14.71875 L 13.703125 -14.71875 L 13.703125 -6.640625 C 13.703125 -4.546875 13.195312 -2.867188 12.1875 -1.609375 C 11.175781 -0.347656 9.613281 0.28125 7.5 0.28125 C 5.40625 0.28125 3.851562 -0.347656 2.84375 -1.609375 C 1.832031 -2.867188 1.328125 -4.546875 1.328125 -6.640625 L 1.328125 -20.84375 C 1.328125 -21.882812 1.453125 -22.832031 1.703125 -23.6875 C 1.953125 -24.539062 2.332031 -25.265625 2.84375 -25.859375 C 3.351562 -26.460938 3.992188 -26.925781 4.765625 -27.25 C 5.535156 -27.582031 6.445312 -27.75 7.5 -27.75 Z M 7.5 -27.75 "/></g></g></g></g></g></g><g fill="#222222" fill-opacity="1"><g transform="translate(83.395213, 82.809888)"><g><path d="M 0.421875 -36.90625 L 18.34375 -36.90625 L 18.34375 -31.625 L 12.28125 -31.625 L 12.28125 0 L 6.484375 0 L 6.484375 -31.625 L 0.421875 -31.625 Z M 0.421875 -36.90625 "/></g></g></g><g fill="#222222" fill-opacity="1"><g transform="translate(101.795412, 82.809888)"><g><path d="M 7.90625 0 L 2.109375 0 L 2.109375 -36.90625 L 7.90625 -36.90625 L 7.90625 -21.09375 L 14.5 -21.09375 L 14.5 -36.90625 L 20.40625 -36.90625 L 20.40625 0 L 14.5 0 L 14.5 -15.8125 L 7.90625 -15.8125 Z M 7.90625 0 "/></g></g></g><g fill="#222222" fill-opacity="1"><g transform="translate(123.938919, 82.809888)"><g><path d="M 7.90625 -21.34375 L 15.875 -21.34375 L 15.875 -16.078125 L 7.90625 -16.078125 L 7.90625 -5.265625 L 17.921875 -5.265625 L 17.921875 0 L 2.109375 0 L 2.109375 -36.90625 L 17.921875 -36.90625 L 17.921875 -31.625 L 7.90625 -31.625 Z M 7.90625 -21.34375 "/></g></g></g><g fill="#222222" fill-opacity="1"><g transform="translate(142.971797, 82.809888)"><g><path d="M 2.109375 -36.90625 L 11.28125 -36.90625 C 14.195312 -36.90625 16.363281 -36.128906 17.78125 -34.578125 C 19.207031 -33.035156 19.921875 -30.769531 19.921875 -27.78125 L 19.921875 -9.125 C 19.921875 -6.132812 19.207031 -3.863281 17.78125 -2.3125 C 16.363281 -0.769531 14.195312 0 11.28125 0 L 2.109375 0 Z M 7.90625 -31.625 L 7.90625 -5.265625 L 11.171875 -5.265625 C 12.085938 -5.265625 12.804688 -5.53125 13.328125 -6.0625 C 13.859375 -6.59375 14.125 -7.523438 14.125 -8.859375 L 14.125 -28.046875 C 14.125 -29.378906 13.859375 -30.304688 13.328125 -30.828125 C 12.804688 -31.359375 12.085938 -31.625 11.171875 -31.625 Z M 7.90625 -31.625 "/></g></g></g><g fill="#222222" fill-opacity="1"><g transform="translate(164.11358, 82.809888)"><g><path d="M 7.4375 -8.484375 C 7.4375 -7.148438 7.707031 -6.207031 8.25 -5.65625 C 8.789062 -5.113281 9.519531 -4.84375 10.4375 -4.84375 C 11.351562 -4.84375 12.082031 -5.113281 12.625 -5.65625 C 13.164062 -6.207031 13.4375 -7.148438 13.4375 -8.484375 L 13.4375 -28.421875 C 13.4375 -29.753906 13.164062 -30.691406 12.625 -31.234375 C 12.082031 -31.773438 11.351562 -32.046875 10.4375 -32.046875 C 9.519531 -32.046875 8.789062 -31.773438 8.25 -31.234375 C 7.707031 -30.691406 7.4375 -29.753906 7.4375 -28.421875 Z M 1.640625 -28.046875 C 1.640625 -31.035156 2.394531 -33.328125 3.90625 -34.921875 C 5.414062 -36.523438 7.59375 -37.328125 10.4375 -37.328125 C 13.28125 -37.328125 15.457031 -36.523438 16.96875 -34.921875 C 18.488281 -33.328125 19.25 -31.035156 19.25 -28.046875 L 19.25 -8.859375 C 19.25 -5.867188 18.488281 -3.570312 16.96875 -1.96875 C 15.457031 -0.375 13.28125 0.421875 10.4375 0.421875 C 7.59375 0.421875 5.414062 -0.375 3.90625 -1.96875 C 2.394531 -3.570312 1.640625 -5.867188 1.640625 -8.859375 Z M 1.640625 -28.046875 "/></g></g></g><g fill="#222222" fill-opacity="1"><g transform="translate(184.622685, 82.809888)"><g><path d="M 0.421875 -36.90625 L 18.34375 -36.90625 L 18.34375 -31.625 L 12.28125 -31.625 L 12.28125 0 L 6.484375 0 L 6.484375 -31.625 L 0.421875 -31.625 Z M 0.421875 -36.90625 "/></g></g></g><g fill="#222222" fill-opacity="1"><g transform="translate(203.022884, 82.809888)"><g><path d="M 1.375 -28.046875 C 1.375 -31.035156 2.082031 -33.328125 3.5 -34.921875 C 4.925781 -36.523438 7.0625 -37.328125 9.90625 -37.328125 C 12.757812 -37.328125 14.894531 -36.523438 16.3125 -34.921875 C 17.738281 -33.328125 18.453125 -31.035156 18.453125 -28.046875 L 18.453125 -26.890625 L 12.96875 -26.890625 L 12.96875 -28.421875 C 12.96875 -29.753906 12.710938 -30.691406 12.203125 -31.234375 C 11.691406 -31.773438 10.976562 -32.046875 10.0625 -32.046875 C 9.15625 -32.046875 8.445312 -31.773438 7.9375 -31.234375 C 7.425781 -30.691406 7.171875 -29.753906 7.171875 -28.421875 C 7.171875 -27.148438 7.453125 -26.03125 8.015625 -25.0625 C 8.578125 -24.101562 9.28125 -23.191406 10.125 -22.328125 C 10.96875 -21.460938 11.867188 -20.597656 12.828125 -19.734375 C 13.796875 -18.878906 14.703125 -17.941406 15.546875 -16.921875 C 16.390625 -15.898438 17.09375 -14.738281 17.65625 -13.4375 C 18.21875 -12.144531 18.5 -10.617188 18.5 -8.859375 C 18.5 -5.867188 17.769531 -3.570312 16.3125 -1.96875 C 14.851562 -0.375 12.703125 0.421875 9.859375 0.421875 C 7.015625 0.421875 4.863281 -0.375 3.40625 -1.96875 C 1.945312 -3.570312 1.21875 -5.867188 1.21875 -8.859375 L 1.21875 -11.125 L 6.6875 -11.125 L 6.6875 -8.484375 C 6.6875 -7.148438 6.957031 -6.21875 7.5 -5.6875 C 8.050781 -5.164062 8.785156 -4.90625 9.703125 -4.90625 C 10.617188 -4.90625 11.347656 -5.164062 11.890625 -5.6875 C 12.429688 -6.21875 12.703125 -7.148438 12.703125 -8.484375 C 12.703125 -9.753906 12.421875 -10.867188 11.859375 -11.828125 C 11.296875 -12.796875 10.59375 -13.710938 9.75 -14.578125 C 8.90625 -15.441406 8 -16.300781 7.03125 -17.15625 C 6.070312 -18.019531 5.171875 -18.960938 4.328125 -19.984375 C 3.484375 -21.003906 2.78125 -22.160156 2.21875 -23.453125 C 1.65625 -24.753906 1.375 -26.285156 1.375 -28.046875 Z M 1.375 -28.046875 "/></g></g></g><g clip-path="url(#b2dccf05dc)"><path fill="#7be0b7" d="M 52.453125 25.152344 C 52.289062 20.464844 53.585938 17.070312 56.636719 14.332031 C 57.238281 13.757812 57.898438 13.269531 58.625 12.871094 C 59.351562 12.46875 60.117188 12.167969 60.921875 11.96875 C 61.726562 11.769531 62.542969 11.675781 63.371094 11.6875 C 64.203125 11.703125 65.015625 11.820312 65.8125 12.050781 C 70.695312 13.320312 73.503906 16.722656 74.1875 21.625 C 74.636719 24.867188 73.054688 27.679688 70.773438 29.863281 C 68.660156 31.910156 66.019531 32.851562 63.015625 33.070312 C 57.296875 33.492188 52.785156 35.914062 50.050781 41.238281 C 48.90625 43.453125 48.996094 45.839844 48.960938 48.140625 C 48.894531 49.574219 49.027344 50.988281 49.359375 52.378906 C 50.746094 57.449219 54.035156 60.628906 58.992188 62.136719 C 60.429688 62.628906 61.90625 62.898438 63.421875 62.949219 C 67.660156 62.949219 70.277344 65.371094 72.503906 68.554688 C 72.664062 68.796875 72.796875 69.050781 72.902344 69.320312 C 73.683594 71.136719 74.8125 72.78125 74.195312 75.003906 C 73.351562 78.03125 71.996094 80.601562 69.347656 82.375 C 63.535156 86.285156 57.132812 84.027344 54.027344 78.34375 C 52.84375 76.308594 52.3125 74.117188 52.429688 71.765625 C 52.761719 66.667969 50.21875 63.421875 45.816406 61.234375 C 42.007812 59.339844 38.089844 58.628906 33.957031 59.707031 C 31.125 60.402344 28.578125 61.667969 26.308594 63.503906 C 24.492188 64.996094 23.253906 66.902344 23.320312 69.414062 C 23.402344 72.601562 23.117188 75.714844 21.5625 78.589844 C 20.007812 81.464844 16.25 85.027344 10.875 84.226562 C 9.828125 84.074219 8.824219 83.777344 7.863281 83.328125 C 6.902344 82.882812 6.027344 82.308594 5.238281 81.605469 C 4.445312 80.902344 3.773438 80.097656 3.214844 79.199219 C 2.660156 78.296875 2.246094 77.335938 1.972656 76.3125 C 0.324219 70.257812 4.84375 63.425781 12.050781 62.992188 C 17.324219 62.65625 21.738281 60.683594 24.816406 56.160156 C 26.109375 54.246094 26.535156 52.101562 26.96875 49.914062 C 28.613281 41.6875 21.40625 33.152344 12.804688 33.007812 C 8.839844 32.933594 5.597656 31.3125 3.371094 27.945312 C 0.90625 24.226562 1.074219 19.625 3.902344 15.65625 C 5.71875 13.109375 9.773438 11.042969 14.484375 11.929688 C 18.722656 12.726562 23.125 17.746094 23.292969 23.125 C 23.347656 23.839844 23.347656 24.558594 23.292969 25.273438 C 22.890625 28.867188 24.742188 31.332031 27.429688 33.226562 C 30.121094 35.121094 33.207031 36.671875 36.8125 36.308594 C 37.945312 36.195312 39.105469 36.351562 40.25 36.308594 C 41.308594 36.257812 42.347656 36.089844 43.367188 35.804688 C 44.386719 35.519531 45.359375 35.121094 46.289062 34.613281 C 47.21875 34.105469 48.078125 33.503906 48.871094 32.800781 C 49.664062 32.097656 50.367188 31.316406 50.980469 30.453125 C 51.535156 29.683594 51.9375 28.84375 52.191406 27.933594 C 52.441406 27.023438 52.53125 26.097656 52.453125 25.152344 Z M 52.453125 25.152344 " fill-opacity="1" fill-rule="nonzero"/><path fill="#d6d2d2" d="M 22.917969 48.117188 C 22.859375 52.265625 20.617188 55.183594 17.316406 57.171875 C 11.613281 60.609375 4.285156 57.578125 1.9375 51.332031 C 0.171875 46.652344 3.105469 40.207031 8.148438 38.082031 C 14.089844 35.582031 19.394531 38.6875 22.078125 44.136719 C 22.738281 45.386719 23.015625 46.710938 22.917969 48.117188 Z M 62.886719 58.746094 C 69.550781 58.546875 74.128906 53.621094 74.460938 47.917969 C 74.769531 42.78125 68.628906 37.078125 63.292969 37.164062 C 58.101562 37.242188 52.71875 41.863281 52.851562 47.863281 C 52.570312 54.355469 58.953125 58.859375 62.894531 58.746094 Z M 27.039062 73.277344 C 27.414062 80.394531 32.117188 83.71875 37.871094 84.632812 C 43.980469 83.71875 48.21875 79.929688 48.570312 73.625 C 48.851562 68.640625 43.507812 62.722656 37.972656 62.976562 C 31.742188 62.839844 26.8125 68.90625 27.042969 73.285156 Z M 27.085938 22.671875 C 27.132812 28.320312 32.304688 33.070312 37.757812 32.953125 C 43.464844 32.832031 48.65625 28.464844 48.578125 21.925781 C 48.554688 21.242188 48.464844 20.570312 48.308594 19.902344 C 48.15625 19.238281 47.9375 18.59375 47.65625 17.972656 C 47.375 17.347656 47.039062 16.757812 46.644531 16.199219 C 46.25 15.644531 45.804688 15.128906 45.308594 14.65625 C 44.816406 14.1875 44.28125 13.765625 43.703125 13.402344 C 43.128906 13.035156 42.519531 12.726562 41.882812 12.476562 C 41.25 12.226562 40.59375 12.042969 39.921875 11.921875 C 39.25 11.796875 38.570312 11.742188 37.890625 11.753906 C 37.171875 11.734375 36.457031 11.789062 35.75 11.917969 C 35.042969 12.046875 34.355469 12.246094 33.6875 12.515625 C 33.019531 12.785156 32.386719 13.117188 31.789062 13.515625 C 31.1875 13.914062 30.636719 14.371094 30.132812 14.882812 C 29.625 15.394531 29.175781 15.953125 28.785156 16.554688 C 28.394531 17.160156 28.066406 17.796875 27.804688 18.464844 C 27.542969 19.136719 27.355469 19.824219 27.234375 20.535156 C 27.113281 21.242188 27.066406 21.957031 27.089844 22.675781 Z M 27.085938 22.671875 " fill-opacity="1" fill-rule="nonzero"/></g></svg>